<?xml version="1.0" encoding="utf-8"?>
<!-- Generator: Adobe Illustrator 24.0.2, SVG Export Plug-In . SVG Version: 6.00 Build 0)  -->
<svg version="1.1" xmlns="http://www.w3.org/2000/svg" xmlns:xlink="http://www.w3.org/1999/xlink" x="0px" y="0px"
	 viewBox="0 0 512 512" style="enable-background:new 0 0 512 512;" xml:space="preserve">
<style type="text/css">
	.st0{fill:#14B084;}
	.st1{fill:#FFFFFF;}
	.st2{display:none;}
</style>
<g id="Ebene_1">
	<g>
		<rect class="st0" width="513" height="513"/>
	</g>
	<path class="st1" d="M324.2,468.7c-3.7,0-7.2-2.1-8.9-5.4L227.1,297c-2.6-4.9-0.7-11.1,4.2-13.7c1.5-0.8,3.1-1.2,4.7-1.2H312
		c3.7,0,7.2,2.1,8.9,5.4l23.9,44.7c11.6-17.6,17.7-38.2,17.7-59.2v-30.4c0-59.6-48.3-107.9-107.9-107.9s-107.9,48.3-107.9,107.9
		v30.4c0.1,42.2,24.7,80.5,63.1,98.1c2,0.9,3.7,2.5,4.7,4.5l41,78c2.6,4.9,0.7,11.1-4.2,13.7c-1.5,0.8-3.1,1.2-4.7,1.2h-0.4
		C141.4,464.2,58.8,377.9,59,273.1v-30.4c0-108,87.6-195.6,195.6-195.6c108,0,195.6,87.6,195.6,195.6v30.4
		c-0.1,53.9-22.3,105.4-61.6,142.3l20.2,38.5c2.6,4.9,0.7,11.1-4.2,13.7c-1.5,0.8-3.1,1.2-4.7,1.2H324.2z"/>
</g>
<g id="Ebene_2" class="st2">
</g>
</svg>
